<svg width="24" height="24" viewBox="0 0 24 24" fill="none" xmlns="http://www.w3.org/2000/svg">
<path d="M4.5 7.5C6.1545 7.5 7.5 6.1545 7.5 4.5C7.5 2.8455 6.1545 1.5 4.5 1.5C2.8455 1.5 1.5 2.8455 1.5 4.5C1.5 6.1545 2.8455 7.5 4.5 7.5ZM4.5 3C5.32725 3 6 3.67275 6 4.5C6 5.32725 5.32725 6 4.5 6C3.67275 6 3 5.32725 3 4.5C3 3.67275 3.67275 3 4.5 3Z" fill="white"/>
<path d="M12 7.5C13.6545 7.5 15 6.1545 15 4.5C15 2.8455 13.6545 1.5 12 1.5C10.3455 1.5 9 2.8455 9 4.5C9 6.1545 10.3455 7.5 12 7.5ZM12 3C12.8273 3 13.5 3.67275 13.5 4.5C13.5 5.32725 12.8273 6 12 6C11.1727 6 10.5 5.32725 10.5 4.5C10.5 3.67275 11.1727 3 12 3Z" fill="white"/>
<path d="M19.5 7.5C21.1545 7.5 22.5 6.1545 22.5 4.5C22.5 2.8455 21.1545 1.5 19.5 1.5C17.8455 1.5 16.5 2.8455 16.5 4.5C16.5 6.1545 17.8455 7.5 19.5 7.5ZM19.5 3C20.3273 3 21 3.67275 21 4.5C21 5.32725 20.3273 6 19.5 6C18.6727 6 18 5.32725 18 4.5C18 3.67275 18.6727 3 19.5 3Z" fill="white"/>
<path d="M4.5 15C6.1545 15 7.5 13.6545 7.5 12C7.5 10.3455 6.1545 9 4.5 9C2.8455 9 1.5 10.3455 1.5 12C1.5 13.6545 2.8455 15 4.5 15ZM4.5 10.5C5.32725 10.5 6 11.1727 6 12C6 12.8273 5.32725 13.5 4.5 13.5C3.67275 13.5 3 12.8273 3 12C3 11.1727 3.67275 10.5 4.5 10.5Z" fill="white"/>
<path d="M12 15C13.6545 15 15 13.6545 15 12C15 10.3455 13.6545 9 12 9C10.3455 9 9 10.3455 9 12C9 13.6545 10.3455 15 12 15ZM12 10.5C12.8273 10.5 13.5 11.1727 13.5 12C13.5 12.8273 12.8273 13.5 12 13.5C11.1727 13.5 10.5 12.8273 10.5 12C10.5 11.1727 11.1727 10.5 12 10.5Z" fill="white"/>
<path d="M19.5 9C17.8455 9 16.5 10.3455 16.5 12C16.5 13.6545 17.8455 15 19.5 15C21.1545 15 22.5 13.6545 22.5 12C22.5 10.3455 21.1545 9 19.5 9ZM19.5 13.5C18.6727 13.5 18 12.8273 18 12C18 11.1727 18.6727 10.5 19.5 10.5C20.3273 10.5 21 11.1727 21 12C21 12.8273 20.3273 13.5 19.5 13.5Z" fill="white"/>
<path d="M4.5 22.5C6.1545 22.5 7.5 21.1545 7.5 19.5C7.5 17.8455 6.1545 16.5 4.5 16.5C2.8455 16.5 1.5 17.8455 1.5 19.5C1.5 21.1545 2.8455 22.5 4.5 22.5ZM4.5 18C5.32725 18 6 18.6727 6 19.5C6 20.3273 5.32725 21 4.5 21C3.67275 21 3 20.3273 3 19.5C3 18.6727 3.67275 18 4.5 18Z" fill="white"/>
<path d="M12 22.5C13.6545 22.5 15 21.1545 15 19.5C15 17.8455 13.6545 16.5 12 16.5C10.3455 16.5 9 17.8455 9 19.5C9 21.1545 10.3455 22.5 12 22.5ZM12 18C12.8273 18 13.5 18.6727 13.5 19.5C13.5 20.3273 12.8273 21 12 21C11.1727 21 10.5 20.3273 10.5 19.5C10.5 18.6727 11.1727 18 12 18Z" fill="white"/>
<path d="M19.5 16.5C17.8455 16.5 16.5 17.8455 16.5 19.5C16.5 21.1545 17.8455 22.5 19.5 22.5C21.1545 22.5 22.5 21.1545 22.5 19.5C22.5 17.8455 21.1545 16.5 19.5 16.5ZM19.5 21C18.6727 21 18 20.3273 18 19.5C18 18.6727 18.6727 18 19.5 18C20.3273 18 21 18.6727 21 19.5C21 20.3273 20.3273 21 19.5 21Z" fill="white"/>
</svg>
